/* XPM */
static char *echoes_xpm16[] = {
"16 16 67 1 0 0",
"  c #4A4A4A",
"! c #3C3C3C",
"# c #1D1D1D",
"$ c #0C0C0C",
"% c #000000",
"& c #474747",
"' c #050506",
"( c #121212",
") c #030303",
"* c #2A3134",
"+ c #1F2527",
", c #101010",
"- c #1A1A1A",
". c #2B2B2B",
"/ c #2B2E2F",
"0 c #74848A",
"1 c #151515",
"2 c #2E2F2F",
"3 c #92ADB7",
"4 c #30383C",
"5 c #94A7AE",
"6 c #8DA8B1",
"7 c #4E575A",
"8 c #B1C8D0",
"9 c #3E4649",
": c #020202",
"; c #0B0B0B",
"< c #3D474A",
"= c #AFCAD4",
"> c #778489",
"? c #010101",
"@ c #1D2325",
"A c #AFD0DC",
"B c #BBDAE5",
"C c #3F4041",
"D c #161616",
"E c #1E1E1E",
"F c #141414",
"G c #1B1B1B",
"H c #111516",
"I c #A3C0CC",
"J c #BEE1EE",
"K c #98B0B9",
"L c #515151",
"M c #0D0D0D",
"N c #343434",
"O c #222222",
"P c #242424",
"Q c #040505",
"R c #88A1AB",
"S c #BDE0ED",
"T c #3B4245",
"U c #292929",
"V c #5D6E72",
"W c #97C8A2",
"X c #A4C4C6",
"Y c #84989F",
"Z c #8BB48F",
"[ c #EA9712",
"] c #BCEA8E",
"^ c #202628",
"_ c #050505",
"` c #4B5E5C",
"a c #BBEB84",
"b c #7A9C8C",
"c c #121517",
"d c None",
"    !#$%%$#!    ",
"  &#%%%%%%%'#&  ",
" &(%%%%%)%*+%(& ",
" #%%,--.!/0,%%# ",
"!%%%%%%1234%%%%!",
"#%%%%%%156%%%%%#",
"$%%%,,,789,,:%%$",
"%%%%;;<=>;;;?%%%",
"%%%%%@ABC(DEFD-G",
"$%%%HIJKLGMNOP-N",
"#%%QRJSTU%%%%%%#",
"!%%VWXY.!---F%%!",
" #%Z[]^_M%%%%%# ",
" &(`ab%%%%%%%(& ",
"  &#c%%%%%%%#&  ",
"    !#$%%$#!    "
};
