/* XPM */
static char *echoes_xpm32[] = {
"32 32 148 2 0 0",
"   c #4A4A4A",
"!  c #464646",
"#  c #2E2E2E",
"$  c #1C1C1C",
"%  c #131313",
"&  c #000000",
"'  c #414141",
"(  c #212121",
")  c #3C3C3C",
"*  c #0E0E0E",
"+  c #0F1112",
",  c #030304",
"-  c #050505",
".  c #131718",
"/  c #607278",
"0  c #0A0A0A",
"1  c #060707",
"2  c #8DA7B0",
"3  c #1C2122",
"4  c #0D0D0D",
"5  c #343434",
"6  c #4F4F4F",
"7  c #6B6B6B",
"8  c #353535",
"9  c #6E797D",
":  c #737F83",
";  c #292929",
"<  c #515151",
"=  c #424E52",
">  c #BEE1EE",
"?  c #2F373A",
"@  c #374145",
"A  c #B2D3DF",
"B  c #8FA9B3",
"C  c #15191B",
"D  c #A0BEC9",
"E  c #2F383B",
"F  c #565657",
"G  c #93AEB8",
"H  c #90ABB4",
"I  c #010101",
"J  c #A7B6BC",
"K  c #293134",
"L  c #576063",
"M  c #B0C2C8",
"N  c #8AA4AD",
"O  c #1F1F1F",
"P  c #383D3F",
"Q  c #AABEC5",
"R  c #A8B5BA",
"S  c #ADC7D1",
"T  c #4D5659",
"U  c #080808",
"V  c #151515",
"W  c #313638",
"X  c #A4BEC8",
"Y  c #A3B7BE",
"Z  c #A3B0B5",
"[  c #73858B",
"]  c #141819",
"^  c #9BB7C2",
"_  c #B7D2DB",
"`  c #A4B4B9",
"a  c #212629",
"b  c #0B0D0E",
"c  c #839BA4",
"d  c #646769",
"e  c #020202",
"f  c #687B83",
"g  c #484848",
"h  c #2B2B2B",
"i  c #1E1E1E",
"j  c #474747",
"k  c #111111",
"l  c #3D3D3D",
"m  c #040404",
"n  c #4D4D4D",
"o  c #5D5D5D",
"p  c #0C0C0C",
"q  c #494949",
"r  c #55646A",
"s  c #9DB2BA",
"t  c #535353",
"u  c #909090",
"v  c #2A2A2A",
"w  c #696969",
"x  c #5F5F5F",
"y  c #3B3B3B",
"z  c #5A5A5A",
"{  c #060606",
"|  c #757575",
"}  c #363636",
"~  c #435054",
" ! c #B9DBE8",
"!! c #B7D8E5",
"#! c #4D5356",
"$! c #525252",
"%! c #101010",
"&! c #030303",
"'! c #0B0B0B",
"(! c #090909",
")! c #1F2426",
"*! c #ABCBD6",
"+! c #7A9099",
",! c #292A2A",
"-! c #0F1213",
".! c #99B5C0",
"/! c #1F2527",
"0! c #050607",
"1! c #90AAB4",
"2! c #AEE4D7",
"3! c #A5E6C9",
"4! c #BBE2EA",
"5! c #748A91",
"6! c #465257",
"7! c #9AB4B7",
"8! c #7EAA7D",
"9! c #89AA6C",
":! c #83A794",
";! c #93A4AB",
"<! c #4C5052",
"=! c #1A1A1A",
">! c #65787E",
"?! c #A8EA9D",
"@! c #E1D317",
"A! c #EE790F",
"B! c #C4EF45",
"C! c #B2E4DC",
"D! c #64767D",
"E! c #141414",
"F! c #333333",
"G! c #70848B",
"H! c #ADEA94",
"I! c #E4C415",
"J! c #F54C0B",
"K! c #C9F03C",
"L! c #1D2223",
"M! c #252C2E",
"N! c #BFEF4D",
"O! c #D8F122",
"P! c #A4EB98",
"Q! c #8BA5AE",
"R! c #57676C",
"S! c #A1C3C9",
"T! c #191D1F",
"U! c #181C1E",
"V! c #30393C",
"W! c None",
"                    ! # $ % & & & & % $ # !                     ",
"                ' $ & & & & & & & & & & & & $ '                 ",
"            ! ( & & & & & & & & & & & & & & & & ( !             ",
"          ) * & & & & & & & & & & & & & & & + , & * )           ",
"        ) - & & & & & & & & & & & & & & & . / & & & - )         ",
"      ) - & & & & & & & & & & & 0 & & & 1 2 3 & & & & - )       ",
"    ! * & & & & 4 5 5 5 5 5 5 6 7 5 5 8 9 : 5 4 & & & & * !     ",
"    ( & & & & & & & & & & & & ; < & & = > ? & & & & & & & (     ",
"  ' & & & & & & & & & & & & & ; < & @ A B & & & & & & & & & '   ",
"  $ & & & & & & & & & & & & & ; < C D > E & & & & & & & & & $   ",
"! & & & & & & & & & & & & & & ; F G > H I & & & & & & & & & & ! ",
"# & & & & & & & & & & & & & & ; J > > K & & & & & & & & & & & # ",
"$ & & & & & & & & & & & & & & L M > N & & & & & & & & & & & & $ ",
"% & & & & & & & O O O O O O P Q R S T O O O O O U & & & & & & % ",
"& & & & & & & & V V V V V W X Y Z [ V V V V V V - & & & & & & & ",
"& & & & & & & & & & & & ] ^ > _ ` a & & & & & & & & & & & & & & ",
"& & & & & & & & & & & b c > > _ d & & & & & & & & & & & & & & & ",
"& & & & & & & & & & e f > > > _ < g h i j k ) l m   n 0 o p q ( ",
"% & & & & & & & & I r > > > > s t u V t v e w x # n y n z { | } ",
"$ & & & & & & & I ~  !> > > !!#!$!%!I &!U I &!m & '!& U (!& 0 $ ",
"# & & & & & & & )!*!> > > > +!,!< & & & & & & & I & & & & & & # ",
"! & & & & & & -!.!> > > >  !/!; < & & & & & & & & & & & & & & ! ",
"  $ & & & & 0!1!2!3!4!> > 5!& ; < & & & & & & & & & & & & & $   ",
"  ' & & & & 6!7!8!9!:!;!;!<!5 6 7 5 5 5 5 5 5 5 5 =!& & & & '   ",
"    ( & & & >!?!@!A!B!C!D!& & E!F!& & & & & & & & & & & & (     ",
"    ! * & & G!H!I!J!K!C!L!& & & & & & & & & & & & & & & * !     ",
"      ) - & M!2!N!O!P!Q!& & & & & & & & & & & & & & & - )       ",
"        ) - & R!2!3!S!T!& & & & & & & & & & & & & & - )         ",
"          ) * & U!V!& & & & & & & & & & & & & & & * )           ",
"            ! ( & & & & & & & & & & & & & & & & ( !             ",
"                ' $ & & & & & & & & & & & & $ '                 ",
"                    ! # $ % & & & & % $ # !                     "
};
